<svg
   width="512"
   height="512"
   viewBox="0 0 135.46666 135.46667"
   version="1.1"
   xmlns="http://www.w3.org/2000/svg">
  <defs>
    <linearGradient
       id="gradient"
       x1="45.952099"
       y1="98.568939"
       x2="100.02829"
       y2="45.510174"
       gradientUnits="userSpaceOnUse">
      <stop offset="0" stop-color="#0cbaa6" />
      <stop offset="1" stop-color="#dbfb02" />
    </linearGradient>
  </defs>
  <g transform="translate(-0.22031779,-0.44371338)" fill="url(#gradient)">
    <path d="M 14.304389,30.298602 26.92821,48.400353 a 2.5308807,2.5308807 27.512286 0 0 2.07965,1.083164 l 27.664598,-0.04067 c 0.730626,-0.0011 0.966682,-0.475138 0.530811,-1.061509 C 39.597263,24.696223 50.318191,30.048993 14.86988,29.245809 c -0.730276,-0.01655 -0.983424,0.453504 -0.565491,1.052793 z" />
    <path d="m 43.086144,83.938649 16.425788,22.766691 c 0.427487,0.59251 1.063367,0.55603 1.41901,-0.0822 32.864765,-58.978057 21.210588,-57.023239 48.253148,-56.503263 0.73027,0.01404 1.61312,-0.492472 1.97186,-1.128967 l 10.4972,-18.624942 c 0.35874,-0.636495 0.0576,-1.133578 -0.67276,-1.112393 -65.719937,1.906399 -37.583645,-11.738404 -77.963053,52.493559 -0.388707,0.618319 -0.35868,1.599004 0.06881,2.191515 z" />
  </g>
</svg>
